<?xml version="1.0" encoding="UTF-8"?>
<svg width="1000px" height="315px" viewBox="0 0 1000 315" version="1.1" xmlns="http://www.w3.org/2000/svg" xmlns:xlink="http://www.w3.org/1999/xlink">
    <!-- Generator: Sketch 53.2 (72643) - https://sketchapp.com -->
    <title>Billsby_Logo_WhiteSVG</title>
    <desc>Created with Sketch.</desc>
    <g id="Page-1" stroke="none" stroke-width="1" fill="none" fill-rule="evenodd">
        <g id="Billsby_Logo_White">
            <path d="M102.217073,16.359618 C129.285511,16.359618 150.402789,21.6030328 165.569541,32.0900198 C180.736292,42.5770069 188.319554,58.2548173 188.319554,79.1239215 C188.319554,89.7157784 185.502161,99.1801422 179.867292,107.517297 C174.232422,115.854452 166.043553,122.120332 155.300437,126.315127 C169.097968,129.251484 179.445961,135.543581 186.344726,145.191609 C193.243492,154.839637 196.692822,166.008111 196.692822,178.697365 C196.692822,200.615168 189.42553,217.210576 174.890726,228.484087 C160.355923,239.757598 139.765261,245.394269 113.118121,245.394269 L0,245.394269 L0,217.866066 L24.4878614,213.146946 L24.4878614,48.7642458 L0,44.0451253 L0,16.359618 L102.217073,16.359618 Z M70.6198326,144.090481 L70.6198326,210.158169 L113.118121,210.158169 C125.335782,210.158169 134.656875,207.510245 141.081679,202.214316 C147.506483,196.918388 150.718837,189.079483 150.718837,178.697365 C150.718837,167.476289 147.980437,158.903306 142.503555,152.978158 C137.026673,147.053011 128.39018,144.090481 116.593818,144.090481 L70.6198326,144.090481 Z M70.6198326,112.315069 L103.796935,112.315069 C116.119921,112.315069 125.598998,109.79823 132.234452,104.764477 C138.869905,99.7307228 142.187583,92.389942 142.187583,82.7419139 C142.187583,72.150057 138.843575,64.3373689 132.155459,59.3036151 C125.467343,54.2698613 115.487981,51.7530222 102.217073,51.7530222 L70.6198326,51.7530222 L70.6198326,112.315069 Z M204.609686,217.866066 L226.885741,213.146946 L226.885741,107.595949 L202.239893,102.876828 L202.239893,75.191321 L273.017712,75.191321 L273.017712,213.146946 L295.135781,217.866066 L295.135781,245.394269 L204.609686,245.394269 L204.609686,217.866066 Z M273.017712,34.4495801 L226.885741,34.4495801 L226.885741,0 L273.017712,0 L273.017712,34.4495801 Z M296.417224,27.6855073 L296.417224,0 L367.195043,0 L367.195043,213.146946 L389.471097,217.866066 L389.471097,245.394269 L298.787017,245.394269 L298.787017,217.866066 L321.063072,213.146946 L321.063072,32.4046279 L296.417224,27.6855073 Z M390.594555,27.6855073 L390.594555,0 L461.372373,0 L461.372373,213.146946 L483.648428,217.866066 L483.648428,245.394269 L392.964348,245.394269 L392.964348,217.866066 L415.240402,213.146946 L415.240402,32.4046279 L390.594555,27.6855073 Z M629.171275,133.708416 L598.205979,133.708416 L593.308407,112.472373 C590.148667,109.955497 586.17272,107.858131 581.380448,106.180213 C576.588176,104.502295 571.295691,103.663348 565.502835,103.663348 C557.392836,103.663348 550.968128,105.472327 546.228518,109.090337 C541.488908,112.708348 539.119139,117.243901 539.119139,122.697135 C539.119139,127.835758 541.383585,132.109141 545.912546,135.517412 C550.441506,138.925683 559.499291,141.940647 573.086173,144.562393 C594.25643,148.757188 609.949569,154.918201 620.166061,163.045616 C630.382553,171.17303 635.490723,182.367721 635.490723,196.630024 C635.490723,211.941025 628.881699,224.446569 615.663454,234.147032 C602.445209,243.847495 585.04057,248.697654 563.449014,248.697654 C550.283431,248.697654 538.197608,246.783807 527.191181,242.956057 C516.184753,239.128307 506.416038,233.648938 497.88474,226.517787 L497.410781,188.292911 L529.639967,188.292911 L535.959415,210.472777 C538.697856,212.779914 542.436826,214.484024 547.176435,215.585158 C551.916045,216.686291 556.86623,217.23685 562.027138,217.23685 C571.401033,217.23685 578.536672,215.558957 583.434269,212.203121 C588.331866,208.847286 590.780627,204.285515 590.780627,198.517672 C590.780627,193.483918 588.305535,189.131884 583.355276,185.461438 C578.405017,181.790993 569.29457,178.540076 556.023663,175.708589 C535.906652,171.618664 520.713798,165.56252 510.444643,157.539975 C500.175489,149.51743 495.040988,138.58491 495.040988,124.742087 C495.040988,110.479785 500.939081,98.1839768 512.735443,87.8542945 C524.531805,77.5246123 541.330837,72.3598487 563.133042,72.3598487 C576.403949,72.3598487 588.963727,74.1426097 600.812751,77.7081853 C612.661776,81.2737609 621.956538,85.8355318 628.697316,91.393635 L629.171275,133.708416 Z M812.452824,165.011916 C812.452824,190.390424 806.765377,210.68244 795.390314,225.888571 C784.01525,241.094702 767.584849,248.697654 746.098618,248.697654 C736.092775,248.697654 727.403621,246.626505 720.030895,242.484145 C712.658169,238.341785 706.444107,232.338075 701.388523,224.472835 L698.070813,245.394269 L658.25829,245.394269 L658.25829,32.4046279 L633.770428,27.6855073 L633.770428,0 L704.232275,0 L704.232275,93.2812832 C709.182534,86.4647416 715.106957,81.2213268 722.005722,77.5508813 C728.904488,73.8804358 736.83005,72.0452406 745.782646,72.0452406 C767.479526,72.0452406 784.01525,80.1987507 795.390314,96.5060156 C806.765377,112.81328 812.452824,134.547235 812.452824,161.708531 L812.452824,165.011916 Z M766.478839,161.708531 C766.478839,145.139092 764.030077,132.004338 759.13248,122.303875 C754.234883,112.603412 745.888029,107.753253 734.091667,107.753253 C726.92959,107.753253 720.873513,109.247626 715.923254,112.236417 C710.972995,115.225209 707.07604,119.498592 704.232275,125.056695 L704.232275,196.944632 C707.07604,202.188125 710.999325,206.17312 716.002247,208.899737 C721.005168,211.626354 727.140238,212.989642 734.407639,212.989642 C746.309326,212.989642 754.62985,208.821127 759.369459,200.483972 C764.109069,192.146817 766.478839,180.322917 766.478839,165.011916 L766.478839,161.708531 Z M1000,102.876828 L984.043394,105.236389 L921.164885,270.87752 C916.214626,283.147295 909.605602,293.424388 901.337616,301.709108 C893.06963,309.993828 880.615176,314.136126 863.973879,314.136126 C860.076867,314.136126 856.41689,313.821521 852.993838,313.192302 C849.570787,312.563082 845.542179,311.671702 840.907894,310.518133 L846.279425,277.012377 C847.75397,277.222117 849.281155,277.431854 850.861025,277.641593 C852.440894,277.851333 853.810095,277.956201 854.968666,277.956201 C862.657366,277.956201 868.555459,276.094789 872.663121,272.371909 C876.770782,268.649028 879.930475,264.008606 882.142293,258.450503 L887.355837,245.551573 L833.16657,105.393693 L817.209963,102.876828 L817.209963,75.191321 L900.942651,75.191321 L900.942651,102.876828 L881.82632,106.022909 L905.208278,173.978245 L907.578071,186.247958 L908.525989,186.405262 L935.541629,106.022909 L916.267313,102.876828 L916.267313,75.191321 L1000,75.191321 L1000,102.876828 Z" id="Billsby" fill="#FFFFFF"></path>
            <rect id="Rectangle" fill="#FE7F2D" x="0" y="282.722513" width="821.989529" height="26.1780105"></rect>
        </g>
    </g>
</svg>